<?xml version="1.0" standalone="no"?>
<!DOCTYPE svg PUBLIC "-//W3C//DTD SVG 20010904//EN"
 "http://www.w3.org/TR/2001/REC-SVG-20010904/DTD/svg10.dtd">
<svg version="1.0" xmlns="http://www.w3.org/2000/svg"
 width="1000.000000pt" height="1000.000000pt" viewBox="0 0 1000.000000 1000.000000"
 preserveAspectRatio="xMidYMid meet">
<metadata>
Created by potrace 1.11, written by Peter Selinger 2001-2013
</metadata>
<g transform="translate(0.000000,1000.000000) scale(0.100000,-0.100000)"
fill="#000000" stroke="none">
<path d="M2530 9903 c-451 -10 -777 -53 -1020 -133 -735 -241 -1225 -826
-1344 -1607 -51 -331 -55 -495 -58 -2328 -2 -1489 -9 -2413 -16 -2087 l-2 112
-35 0 -35 0 -2 -52 -1 -53 -7 55 c-11 87 -11 -1222 0 -1450 22 -475 77 -777
188 -1040 163 -385 420 -698 757 -920 318 -209 622 -310 1066 -355 343 -34
544 -36 3129 -32 2312 3 2571 5 2725 20 447 45 669 100 937 234 337 168 605
402 801 700 248 376 347 740 377 1393 11 232 11 1519 0 1450 l-7 -45 -1 43
c-2 34 -6 42 -21 42 -11 0 -26 3 -35 6 -14 5 -16 -8 -18 -102 -7 -315 -14 601
-16 2086 -3 1824 -7 2012 -58 2329 -52 323 -154 588 -325 842 -108 161 -205
270 -342 385 -313 263 -661 409 -1117 468 -291 38 -346 39 -2905 41 -1375 1
-2552 0 -2615 -2z m-554 -1968 c49 -19 112 -44 139 -55 89 -34 385 -149 565
-220 96 -37 245 -95 330 -128 85 -34 225 -88 310 -121 85 -33 196 -76 245 -95
l90 -34 0 -198 0 -198 -150 -58 c-82 -32 -184 -71 -225 -87 -458 -180 -524
-206 -1141 -445 -135 -53 -251 -96 -258 -96 -8 0 -11 58 -9 222 l3 222 57 18
c54 16 240 81 890 311 159 56 287 106 285 111 -3 9 -15 14 -622 227 -236 84
-470 167 -520 185 l-90 32 -3 221 c-1 122 1 221 6 221 4 0 48 -16 98 -35z
m3482 -2094 l-3 -176 -880 0 -880 0 -3 177 -2 178 872 2 c480 2 879 1 886 -1
10 -2 12 -44 10 -180z"/>
</g>
</svg>
