<svg width="235" height="271" viewBox="0 0 235 271" fill="none" xmlns="http://www.w3.org/2000/svg">
<path fill-rule="evenodd" clip-rule="evenodd" d="M89.3495 0.719585C76.635 24.1029 73.3763 56.9103 77.0103 90.7518C82.4453 141.315 103.235 194.167 130.301 221.081C130.864 221.627 131.709 221.553 132.183 220.918C132.67 220.268 132.606 219.308 132.043 218.747C105.399 192.247 85.0071 140.162 79.6657 90.3677C76.1086 57.2943 79.1789 25.2107 91.6166 2.3592C92.0137 1.6354 91.8216 0.690107 91.194 0.23219C90.5791 -0.210954 89.7465 -0.00421841 89.3495 0.719585Z" fill="#FF0A78"/>
<path fill-rule="evenodd" clip-rule="evenodd" d="M153.285 262.207C138.298 245.693 126.591 229.444 106.147 219.917C105.455 219.607 104.674 219.976 104.405 220.773C104.123 221.556 104.456 222.457 105.135 222.768C127.628 233.255 139.336 252.074 156.82 270.214C157.768 271.188 158.563 270.583 158.742 270.42C159.011 270.184 159.37 269.711 159.241 268.884C159.216 268.722 159.126 268.411 158.947 267.998C158.588 267.215 157.743 265.694 157.422 264.97C156.513 262.872 155.655 260.76 154.745 258.662C152.145 252.665 149.609 246.653 147.457 240.434C139.374 217.184 132.637 198.232 140.988 174.155C141.27 173.357 140.937 172.471 140.245 172.146C139.566 171.835 138.785 172.22 138.516 173.002C129.87 197.907 136.62 217.538 144.972 241.586C147.162 247.879 149.724 253.98 152.35 260.036C152.67 260.76 152.978 261.484 153.285 262.207Z" fill="#FF0A78"/>
</svg>
