<svg width="177" height="177" viewBox="0 0 177 177" fill="none" xmlns="http://www.w3.org/2000/svg">
<g clip-path="url(#clip0_4891:3944)">
<path fill-rule="evenodd" clip-rule="evenodd" d="M112.835 7.09338C134.791 64.8339 101.337 117.468 54.6105 151.238C53.809 151.82 53.6261 152.944 54.2076 153.745C54.7892 154.547 55.9129 154.73 56.7143 154.148C104.752 119.435 138.762 65.1732 116.189 5.8153C115.84 4.88986 114.802 4.42524 113.873 4.77723C112.948 5.12701 112.483 6.16398 112.835 7.09338Z" fill="#FF0A78"/>
<path fill-rule="evenodd" clip-rule="evenodd" d="M56.5402 152.06C57.8579 149.194 59.5513 145.615 59.7316 145.203C64.6186 134.046 67.5127 122.728 68.8532 110.596C68.9632 109.611 68.2499 108.722 67.2653 108.612C66.2807 108.502 65.392 109.215 65.282 110.2C63.9859 121.965 61.182 132.942 56.4403 143.765C56.1643 144.396 52.3525 152.438 51.7039 154.122C51.4346 154.812 51.4966 155.286 51.5218 155.396C51.6335 155.988 51.9507 156.324 52.2441 156.534C52.5771 156.769 53.2212 157.022 54.0976 156.845C55.014 156.656 56.8093 155.8 57.28 155.621C64.3884 152.935 72.0879 149.319 79.8768 147.426C87.3046 145.62 94.8228 145.383 101.935 149.34C102.8 149.822 103.896 149.507 104.378 148.642C104.86 147.777 104.546 146.681 103.68 146.199C95.7281 141.777 87.3311 141.918 79.0305 143.935C71.2878 145.817 63.6292 149.349 56.5402 152.06Z" fill="#FF0A78"/>
</g>
<defs>
<clipPath id="clip0_4891:3944">
<rect width="130" height="130" fill="white" transform="translate(0 63.2861) rotate(-29.1316)"/>
</clipPath>
</defs>
</svg>
