<svg width="16" height="16" viewBox="0 0 16 16" fill="none" xmlns="http://www.w3.org/2000/svg">
<path d="M10.0844 4.0127L13.2188 7.29395C13.4062 7.4752 13.5 7.72207 13.5 7.99395C13.5 8.26582 13.4062 8.50957 13.2188 8.69395L10.0844 11.9877C9.7125 12.3783 9.10625 12.3783 8.73438 11.9877C8.3625 11.5971 8.3625 10.9658 8.73438 10.5752L10.2406 9.0002H3.45937C2.92812 9.0002 2.5 8.55332 2.5 8.0002C2.5 7.44707 2.92812 7.0002 3.45625 7.0002H10.2375L8.73125 5.4252C8.35937 5.03457 8.35937 4.40332 8.73125 4.0127C9.10625 3.62207 9.70938 3.62207 10.0844 4.0127Z" fill="rgb(82, 99, 242)"/>
</svg>
