<svg width="1106" height="384" viewBox="0 0 1106 384" fill="none" xmlns="http://www.w3.org/2000/svg">
<path opacity="0.16" d="M131.229 79.4667L129.965 93.9373C121.105 195.336 221.005 271.318 316.355 235.702C356.294 220.784 400.878 225.096 437.217 247.391L466.067 265.092C531.254 305.086 616.739 275.7 643.557 204.078C668.289 138.026 743.84 106.797 807.991 136.108L962.709 206.802C988.013 218.364 1017.92 211.704 1035.92 190.496C1058.91 163.423 1101.78 167.299 1119.53 198.057L1124.45 206.572C1139.07 231.899 1132.65 264.14 1109.45 281.94L1070.82 311.575C1035.45 338.709 987.49 342.689 948.131 321.756L910.94 301.976C852.45 270.869 780.316 303.188 764.597 367.544C749.844 427.948 697.422 471.667 635.351 475.334L591.393 477.931C557.819 479.915 524.607 470.109 497.494 450.208L444.579 411.367C400.713 379.169 340.291 382.096 299.743 418.382C259.014 454.83 198.266 457.602 154.387 425.014L120.618 399.933C97.4413 382.72 79.1345 359.781 67.4913 333.364L37.804 266.007C12.8748 209.444 0 148.31 0 86.4973V46.9272C0 -9.15613 13.8831 -64.3674 40.4107 -113.78L153.162 -323.803C174.928 -364.346 224.521 -380.899 266.275 -361.558C313.149 -339.844 330.851 -282.281 304.277 -237.981L151.7 16.374C140.179 35.5799 133.179 57.1554 131.229 79.4667Z" fill="#f77638"/>
</svg>
