<svg width="151" height="52" viewBox="0 0 151 52" fill="none" xmlns="http://www.w3.org/2000/svg">
<path d="M113.425 43.1921C120.998 45.1421 128.975 44.4302 136.6 44.0134C138.337 43.9185 140.055 41.9906 141.676 40.9741C143.66 39.7302 145.568 38.9846 146.861 35.6057C148.489 31.3527 149.638 23.9801 148.61 18.8661C147.676 14.2219 144.583 11.7994 142.271 10.5143C140.352 9.44777 138.32 9.3008 136.338 9.12948C130.463 8.62167 124.581 8.59371 118.713 7.78577C113.721 7.09842 108.739 5.88234 103.747 5.10269C97.038 4.05508 90.425 4.64507 83.7147 4.19357C72.9562 3.4697 62.2113 2.4186 51.4223 2.2805C45.2798 2.20187 39.1561 1.92965 33.0115 2.10142C29.681 2.19452 26.1124 1.59462 22.8096 2.54983C20.0939 3.33527 17.5218 5.10025 14.9449 6.80975C11.722 8.94771 8.23845 10.146 5.11413 12.7569C2.51117 14.9322 1.95646 16.0663 2.00258 21.332C2.03826 25.4061 2.70146 28.7217 3.73504 32.3019C4.83731 36.12 6.76139 38.4724 8.84183 40.1168C10.4094 41.3558 11.8938 42.7659 13.5247 43.7811C16.9633 45.9216 20.3295 45.7322 23.883 46.4297C30.4004 47.709 36.9568 47.2481 43.4728 48.4531C58.9265 51.3108 74.6884 49.4168 90.1786 48.9838C97.6913 48.7738 105.204 48.5638 112.717 48.3538C115.866 48.2657 119.016 48.1777 122.166 48.0896C123.859 48.0423 125.934 48.6626 127.413 47.2084" stroke="#A4DCFE" stroke-width="4" stroke-linecap="round" stroke-linejoin="round"/>
</svg>
