<svg width="31" height="24" viewBox="0 0 31 24" fill="none" xmlns="http://www.w3.org/2000/svg">
<path d="M26.2428 1.97356C24.267 1.06009 22.1482 0.387077 19.9329 0.00161696C19.8925 -0.0058223 19.8522 0.0127688 19.8314 0.0499519C19.5589 0.538282 19.2571 1.17535 19.0457 1.67608C16.663 1.31665 14.2925 1.31665 11.9587 1.67608C11.7473 1.16422 11.4345 0.538282 11.1607 0.0499519C11.14 0.0140094 11.0997 -0.00458169 11.0593 0.00161696C8.84522 0.385845 6.72643 1.05885 4.74937 1.97356C4.73226 1.981 4.71759 1.9934 4.70785 2.0095C0.688964 8.05919 -0.411977 13.9602 0.128108 19.788C0.130551 19.8165 0.146436 19.8438 0.168431 19.8611C2.81998 21.8231 5.38846 23.0143 7.90924 23.8038C7.94958 23.8162 7.99232 23.8013 8.018 23.7678C8.61429 22.9473 9.14583 22.0822 9.60157 21.1724C9.62847 21.1192 9.6028 21.0559 9.54783 21.0349C8.70471 20.7126 7.9019 20.3197 7.12965 19.8735C7.06857 19.8376 7.06368 19.7496 7.11987 19.7074C7.28238 19.5847 7.44493 19.4571 7.60011 19.3282C7.62818 19.3046 7.6673 19.2996 7.70031 19.3145C12.7737 21.6484 18.2662 21.6484 23.2796 19.3145C23.3127 19.2984 23.3518 19.3034 23.3811 19.3269C23.5363 19.4558 23.6988 19.5847 23.8625 19.7074C23.9187 19.7496 23.9151 19.8376 23.854 19.8735C23.0817 20.3284 22.2789 20.7126 21.4346 21.0336C21.3796 21.0547 21.3552 21.1192 21.3821 21.1724C21.8476 22.0809 22.3791 22.9461 22.9644 23.7666C22.9889 23.8013 23.0328 23.8162 23.0732 23.8038C25.6062 23.0143 28.1746 21.8231 30.8262 19.8611C30.8494 19.8438 30.8641 19.8178 30.8665 19.7892C31.5129 13.0516 29.7839 7.19904 26.2831 2.01074C26.2746 1.9934 26.2599 1.981 26.2428 1.97356ZM10.3592 16.2395C8.83177 16.2395 7.57321 14.8265 7.57321 13.0913C7.57321 11.3561 8.80736 9.94316 10.3592 9.94316C11.9232 9.94316 13.1696 11.3685 13.1451 13.0913C13.1451 14.8265 11.911 16.2395 10.3592 16.2395ZM20.6599 16.2395C19.1325 16.2395 17.8739 14.8265 17.8739 13.0913C17.8739 11.3561 19.1081 9.94316 20.6599 9.94316C22.2239 9.94316 23.4703 11.3685 23.4459 13.0913C23.4459 14.8265 22.2239 16.2395 20.6599 16.2395Z" fill="#705DF2"/>
</svg>
