<svg width="156" height="76" viewBox="0 0 156 76" fill="none" xmlns="http://www.w3.org/2000/svg">
<path d="M1.69 8.44055C2.62336 8.44055 3.38 7.68391 3.38 6.75055C3.38 5.81719 2.62336 5.06055 1.69 5.06055C0.756637 5.06055 0 5.81719 0 6.75055C0 7.68391 0.756637 8.44055 1.69 8.44055Z" fill="#A0AEC0" fill-opacity="0.3"/>
<path d="M16.8892 8.44055C17.8226 8.44055 18.5792 7.68391 18.5792 6.75055C18.5792 5.81719 17.8226 5.06055 16.8892 5.06055C15.9559 5.06055 15.1992 5.81719 15.1992 6.75055C15.1992 7.68391 15.9559 8.44055 16.8892 8.44055Z" fill="#A0AEC0" fill-opacity="0.3"/>
<path d="M32.0904 8.44055C33.0238 8.44055 33.7804 7.68391 33.7804 6.75055C33.7804 5.81719 33.0238 5.06055 32.0904 5.06055C31.157 5.06055 30.4004 5.81719 30.4004 6.75055C30.4004 7.68391 31.157 8.44055 32.0904 8.44055Z" fill="#A0AEC0" fill-opacity="0.3"/>
<path d="M48.9796 6.75055C48.9796 7.68055 48.2196 8.44055 47.2896 8.44055C46.3596 8.44055 45.5996 7.68055 45.5996 6.75055C45.5996 5.82055 46.3596 5.06055 47.2896 5.06055C48.2196 5.07055 48.9796 5.82055 48.9796 6.75055Z" fill="#A0AEC0" fill-opacity="0.3"/>
<path d="M64.1808 6.75055C64.1808 7.68055 63.4208 8.44055 62.4908 8.44055C61.5608 8.44055 60.8008 7.68055 60.8008 6.75055C60.8008 5.82055 61.5608 5.06055 62.4908 5.06055C63.4208 5.07055 64.1808 5.82055 64.1808 6.75055Z" fill="#A0AEC0" fill-opacity="0.3"/>
<path d="M77.69 8.44055C78.6234 8.44055 79.38 7.68391 79.38 6.75055C79.38 5.81719 78.6234 5.06055 77.69 5.06055C76.7566 5.06055 76 5.81719 76 6.75055C76 7.68391 76.7566 8.44055 77.69 8.44055Z" fill="#A0AEC0" fill-opacity="0.3"/>
<path d="M92.8892 8.44055C93.8226 8.44055 94.5792 7.68391 94.5792 6.75055C94.5792 5.81719 93.8226 5.06055 92.8892 5.06055C91.9559 5.06055 91.1992 5.81719 91.1992 6.75055C91.1992 7.68391 91.9559 8.44055 92.8892 8.44055Z" fill="#A0AEC0" fill-opacity="0.3"/>
<path d="M108.09 8.44055C109.024 8.44055 109.78 7.68391 109.78 6.75055C109.78 5.81719 109.024 5.06055 108.09 5.06055C107.157 5.06055 106.4 5.81719 106.4 6.75055C106.4 7.68391 107.157 8.44055 108.09 8.44055Z" fill="#A0AEC0" fill-opacity="0.3"/>
<path d="M123.29 8.44055C124.223 8.44055 124.98 7.68391 124.98 6.75055C124.98 5.81719 124.223 5.06055 123.29 5.06055C122.356 5.06055 121.6 5.81719 121.6 6.75055C121.6 7.68391 122.356 8.44055 123.29 8.44055Z" fill="#A0AEC0" fill-opacity="0.3"/>
<path d="M138.491 8.44055C139.424 8.44055 140.181 7.68391 140.181 6.75055C140.181 5.81719 139.424 5.06055 138.491 5.06055C137.557 5.06055 136.801 5.81719 136.801 6.75055C136.801 7.68391 137.557 8.44055 138.491 8.44055Z" fill="#A0AEC0" fill-opacity="0.3"/>
<path d="M153.69 8.44055C154.623 8.44055 155.38 7.68391 155.38 6.75055C155.38 5.81719 154.623 5.06055 153.69 5.06055C152.757 5.06055 152 5.81719 152 6.75055C152 7.68391 152.757 8.44055 153.69 8.44055Z" fill="#A0AEC0" fill-opacity="0.3"/>
<path d="M3.38 20.2701C3.38 21.2001 2.62 21.9601 1.69 21.9601C0.759999 21.9601 0 21.2001 0 20.2701C0 19.3401 0.759999 18.5801 1.69 18.5801C2.62 18.5801 3.38 19.3301 3.38 20.2701Z" fill="#A0AEC0" fill-opacity="0.3"/>
<path d="M18.5792 20.2701C18.5792 21.2001 17.8192 21.9601 16.8892 21.9601C15.9592 21.9601 15.1992 21.2001 15.1992 20.2701C15.1992 19.3401 15.9592 18.5801 16.8892 18.5801C17.8192 18.5801 18.5792 19.3301 18.5792 20.2701Z" fill="#A0AEC0" fill-opacity="0.3"/>
<path d="M33.7804 20.2701C33.7804 21.2001 33.0204 21.9601 32.0904 21.9601C31.1604 21.9601 30.4004 21.2001 30.4004 20.2701C30.4004 19.3401 31.1604 18.5801 32.0904 18.5801C33.0204 18.5801 33.7804 19.3301 33.7804 20.2701Z" fill="#A0AEC0" fill-opacity="0.3"/>
<path d="M48.9796 20.2701C48.9796 21.2001 48.2196 21.9601 47.2896 21.9601C46.3596 21.9601 45.5996 21.2001 45.5996 20.2701C45.5996 19.3401 46.3596 18.5801 47.2896 18.5801C48.2196 18.5801 48.9796 19.3301 48.9796 20.2701Z" fill="#A0AEC0" fill-opacity="0.3"/>
<path d="M64.1808 20.2701C64.1808 21.2001 63.4208 21.9601 62.4908 21.9601C61.5608 21.9601 60.8008 21.2001 60.8008 20.2701C60.8008 19.3401 61.5608 18.5801 62.4908 18.5801C63.4208 18.5801 64.1808 19.3301 64.1808 20.2701Z" fill="#A0AEC0" fill-opacity="0.3"/>
<path d="M79.38 20.2701C79.38 21.2001 78.62 21.9601 77.69 21.9601C76.76 21.9601 76 21.2001 76 20.2701C76 19.3401 76.76 18.5801 77.69 18.5801C78.62 18.5801 79.38 19.3301 79.38 20.2701Z" fill="#A0AEC0" fill-opacity="0.3"/>
<path d="M94.5792 20.2701C94.5792 21.2001 93.8192 21.9601 92.8892 21.9601C91.9592 21.9601 91.1992 21.2001 91.1992 20.2701C91.1992 19.3401 91.9592 18.5801 92.8892 18.5801C93.8192 18.5801 94.5792 19.3301 94.5792 20.2701Z" fill="#A0AEC0" fill-opacity="0.3"/>
<path d="M109.78 20.2701C109.78 21.2001 109.02 21.9601 108.09 21.9601C107.16 21.9601 106.4 21.2001 106.4 20.2701C106.4 19.3401 107.16 18.5801 108.09 18.5801C109.02 18.5801 109.78 19.3301 109.78 20.2701Z" fill="#A0AEC0" fill-opacity="0.3"/>
<path d="M124.98 20.2701C124.98 21.2001 124.22 21.9601 123.29 21.9601C122.36 21.9601 121.6 21.2001 121.6 20.2701C121.6 19.3401 122.36 18.5801 123.29 18.5801C124.22 18.5801 124.98 19.3301 124.98 20.2701Z" fill="#A0AEC0" fill-opacity="0.3"/>
<path d="M140.181 20.2701C140.181 21.2001 139.421 21.9601 138.491 21.9601C137.561 21.9601 136.801 21.2001 136.801 20.2701C136.801 19.3401 137.561 18.5801 138.491 18.5801C139.421 18.5801 140.181 19.3301 140.181 20.2701Z" fill="#A0AEC0" fill-opacity="0.3"/>
<path d="M155.38 20.2701C155.38 21.2001 154.62 21.9601 153.69 21.9601C152.76 21.9601 152 21.2001 152 20.2701C152 19.3401 152.76 18.5801 153.69 18.5801C154.62 18.5801 155.38 19.3301 155.38 20.2701Z" fill="#A0AEC0" fill-opacity="0.3"/>
<path d="M3.38 33.7798C3.38 34.7098 2.62 35.4698 1.69 35.4698C0.759999 35.4698 0 34.7098 0 33.7798C0 32.8498 0.759999 32.0898 1.69 32.0898C2.62 32.0898 3.38 32.8398 3.38 33.7798Z" fill="#A0AEC0" fill-opacity="0.3"/>
<path d="M18.5792 33.7798C18.5792 34.7098 17.8192 35.4698 16.8892 35.4698C15.9592 35.4698 15.1992 34.7098 15.1992 33.7798C15.1992 32.8498 15.9592 32.0898 16.8892 32.0898C17.8192 32.0898 18.5792 32.8398 18.5792 33.7798Z" fill="#A0AEC0" fill-opacity="0.3"/>
<path d="M33.7804 33.7798C33.7804 34.7098 33.0204 35.4698 32.0904 35.4698C31.1604 35.4698 30.4004 34.7098 30.4004 33.7798C30.4004 32.8498 31.1604 32.0898 32.0904 32.0898C33.0204 32.0898 33.7804 32.8398 33.7804 33.7798Z" fill="#A0AEC0" fill-opacity="0.3"/>
<path d="M48.9796 33.7798C48.9796 34.7098 48.2196 35.4698 47.2896 35.4698C46.3596 35.4698 45.5996 34.7098 45.5996 33.7798C45.5996 32.8498 46.3596 32.0898 47.2896 32.0898C48.2196 32.0898 48.9796 32.8398 48.9796 33.7798Z" fill="#A0AEC0" fill-opacity="0.3"/>
<path d="M64.1808 33.7798C64.1808 34.7098 63.4208 35.4698 62.4908 35.4698C61.5608 35.4698 60.8008 34.7098 60.8008 33.7798C60.8008 32.8498 61.5608 32.0898 62.4908 32.0898C63.4208 32.0898 64.1808 32.8398 64.1808 33.7798Z" fill="#A0AEC0" fill-opacity="0.3"/>
<path d="M79.38 33.7798C79.38 34.7098 78.62 35.4698 77.69 35.4698C76.76 35.4698 76 34.7098 76 33.7798C76 32.8498 76.76 32.0898 77.69 32.0898C78.62 32.0898 79.38 32.8398 79.38 33.7798Z" fill="#A0AEC0" fill-opacity="0.3"/>
<path d="M94.5792 33.7798C94.5792 34.7098 93.8192 35.4698 92.8892 35.4698C91.9592 35.4698 91.1992 34.7098 91.1992 33.7798C91.1992 32.8498 91.9592 32.0898 92.8892 32.0898C93.8192 32.0898 94.5792 32.8398 94.5792 33.7798Z" fill="#A0AEC0" fill-opacity="0.3"/>
<path d="M109.78 33.7798C109.78 34.7098 109.02 35.4698 108.09 35.4698C107.16 35.4698 106.4 34.7098 106.4 33.7798C106.4 32.8498 107.16 32.0898 108.09 32.0898C109.02 32.0898 109.78 32.8398 109.78 33.7798Z" fill="#A0AEC0" fill-opacity="0.3"/>
<path d="M124.98 33.7798C124.98 34.7098 124.22 35.4698 123.29 35.4698C122.36 35.4698 121.6 34.7098 121.6 33.7798C121.6 32.8498 122.36 32.0898 123.29 32.0898C124.22 32.0898 124.98 32.8398 124.98 33.7798Z" fill="#A0AEC0" fill-opacity="0.3"/>
<path d="M140.181 33.7798C140.181 34.7098 139.421 35.4698 138.491 35.4698C137.561 35.4698 136.801 34.7098 136.801 33.7798C136.801 32.8498 137.561 32.0898 138.491 32.0898C139.421 32.0898 140.181 32.8398 140.181 33.7798Z" fill="#A0AEC0" fill-opacity="0.3"/>
<path d="M155.38 33.7798C155.38 34.7098 154.62 35.4698 153.69 35.4698C152.76 35.4698 152 34.7098 152 33.7798C152 32.8498 152.76 32.0898 153.69 32.0898C154.62 32.0898 155.38 32.8398 155.38 33.7798Z" fill="#A0AEC0" fill-opacity="0.3"/>
<path d="M3.38 47.2896C3.38 48.2196 2.62 48.9796 1.69 48.9796C0.759999 48.9796 0 48.2196 0 47.2896C0 46.3596 0.759999 45.5996 1.69 45.5996C2.62 45.5996 3.38 46.3596 3.38 47.2896Z" fill="#A0AEC0" fill-opacity="0.3"/>
<path d="M18.5792 47.2896C18.5792 48.2196 17.8192 48.9796 16.8892 48.9796C15.9592 48.9796 15.1992 48.2196 15.1992 47.2896C15.1992 46.3596 15.9592 45.5996 16.8892 45.5996C17.8192 45.5996 18.5792 46.3596 18.5792 47.2896Z" fill="#A0AEC0" fill-opacity="0.3"/>
<path d="M33.7804 47.2896C33.7804 48.2196 33.0204 48.9796 32.0904 48.9796C31.1604 48.9796 30.4004 48.2196 30.4004 47.2896C30.4004 46.3596 31.1604 45.5996 32.0904 45.5996C33.0204 45.5996 33.7804 46.3596 33.7804 47.2896Z" fill="#A0AEC0" fill-opacity="0.3"/>
<path d="M48.9796 47.2896C48.9796 48.2196 48.2196 48.9796 47.2896 48.9796C46.3596 48.9796 45.5996 48.2196 45.5996 47.2896C45.5996 46.3596 46.3596 45.5996 47.2896 45.5996C48.2196 45.5996 48.9796 46.3596 48.9796 47.2896Z" fill="#A0AEC0" fill-opacity="0.3"/>
<path d="M64.1808 47.2896C64.1808 48.2196 63.4208 48.9796 62.4908 48.9796C61.5608 48.9796 60.8008 48.2196 60.8008 47.2896C60.8008 46.3596 61.5608 45.5996 62.4908 45.5996C63.4208 45.5996 64.1808 46.3596 64.1808 47.2896Z" fill="#A0AEC0" fill-opacity="0.3"/>
<path d="M79.38 47.2896C79.38 48.2196 78.62 48.9796 77.69 48.9796C76.76 48.9796 76 48.2196 76 47.2896C76 46.3596 76.76 45.5996 77.69 45.5996C78.62 45.5996 79.38 46.3596 79.38 47.2896Z" fill="#A0AEC0" fill-opacity="0.3"/>
<path d="M94.5792 47.2896C94.5792 48.2196 93.8192 48.9796 92.8892 48.9796C91.9592 48.9796 91.1992 48.2196 91.1992 47.2896C91.1992 46.3596 91.9592 45.5996 92.8892 45.5996C93.8192 45.5996 94.5792 46.3596 94.5792 47.2896Z" fill="#A0AEC0" fill-opacity="0.3"/>
<path d="M109.78 47.2896C109.78 48.2196 109.02 48.9796 108.09 48.9796C107.16 48.9796 106.4 48.2196 106.4 47.2896C106.4 46.3596 107.16 45.5996 108.09 45.5996C109.02 45.5996 109.78 46.3596 109.78 47.2896Z" fill="#A0AEC0" fill-opacity="0.3"/>
<path d="M124.98 47.2896C124.98 48.2196 124.22 48.9796 123.29 48.9796C122.36 48.9796 121.6 48.2196 121.6 47.2896C121.6 46.3596 122.36 45.5996 123.29 45.5996C124.22 45.5996 124.98 46.3596 124.98 47.2896Z" fill="#A0AEC0" fill-opacity="0.3"/>
<path d="M140.181 47.2896C140.181 48.2196 139.421 48.9796 138.491 48.9796C137.561 48.9796 136.801 48.2196 136.801 47.2896C136.801 46.3596 137.561 45.5996 138.491 45.5996C139.421 45.5996 140.181 46.3596 140.181 47.2896Z" fill="#A0AEC0" fill-opacity="0.3"/>
<path d="M155.38 47.2896C155.38 48.2196 154.62 48.9796 153.69 48.9796C152.76 48.9796 152 48.2196 152 47.2896C152 46.3596 152.76 45.5996 153.69 45.5996C154.62 45.5996 155.38 46.3596 155.38 47.2896Z" fill="#A0AEC0" fill-opacity="0.3"/>
<path d="M1.69 62.4894C2.62336 62.4894 3.38 61.7327 3.38 60.7994C3.38 59.866 2.62336 59.1094 1.69 59.1094C0.756637 59.1094 0 59.866 0 60.7994C0 61.7327 0.756637 62.4894 1.69 62.4894Z" fill="#A0AEC0" fill-opacity="0.3"/>
<path d="M16.8892 62.4894C17.8226 62.4894 18.5792 61.7327 18.5792 60.7994C18.5792 59.866 17.8226 59.1094 16.8892 59.1094C15.9559 59.1094 15.1992 59.866 15.1992 60.7994C15.1992 61.7327 15.9559 62.4894 16.8892 62.4894Z" fill="#A0AEC0" fill-opacity="0.3"/>
<path d="M32.0904 62.4894C33.0238 62.4894 33.7804 61.7327 33.7804 60.7994C33.7804 59.866 33.0238 59.1094 32.0904 59.1094C31.157 59.1094 30.4004 59.866 30.4004 60.7994C30.4004 61.7327 31.157 62.4894 32.0904 62.4894Z" fill="#A0AEC0" fill-opacity="0.3"/>
<path d="M48.9796 60.7994C48.9796 61.7294 48.2196 62.4894 47.2896 62.4894C46.3596 62.4894 45.5996 61.7294 45.5996 60.7994C45.5996 59.8694 46.3596 59.1094 47.2896 59.1094C48.2196 59.1094 48.9796 59.8694 48.9796 60.7994Z" fill="#A0AEC0" fill-opacity="0.3"/>
<path d="M64.1808 60.7994C64.1808 61.7294 63.4208 62.4894 62.4908 62.4894C61.5608 62.4894 60.8008 61.7294 60.8008 60.7994C60.8008 59.8694 61.5608 59.1094 62.4908 59.1094C63.4208 59.1094 64.1808 59.8694 64.1808 60.7994Z" fill="#A0AEC0" fill-opacity="0.3"/>
<path d="M77.69 62.4894C78.6234 62.4894 79.38 61.7327 79.38 60.7994C79.38 59.866 78.6234 59.1094 77.69 59.1094C76.7566 59.1094 76 59.866 76 60.7994C76 61.7327 76.7566 62.4894 77.69 62.4894Z" fill="#A0AEC0" fill-opacity="0.3"/>
<path d="M92.8892 62.4894C93.8226 62.4894 94.5792 61.7327 94.5792 60.7994C94.5792 59.866 93.8226 59.1094 92.8892 59.1094C91.9559 59.1094 91.1992 59.866 91.1992 60.7994C91.1992 61.7327 91.9559 62.4894 92.8892 62.4894Z" fill="#A0AEC0" fill-opacity="0.3"/>
<path d="M108.09 62.4894C109.024 62.4894 109.78 61.7327 109.78 60.7994C109.78 59.866 109.024 59.1094 108.09 59.1094C107.157 59.1094 106.4 59.866 106.4 60.7994C106.4 61.7327 107.157 62.4894 108.09 62.4894Z" fill="#A0AEC0" fill-opacity="0.3"/>
<path d="M123.29 62.4894C124.223 62.4894 124.98 61.7327 124.98 60.7994C124.98 59.866 124.223 59.1094 123.29 59.1094C122.356 59.1094 121.6 59.866 121.6 60.7994C121.6 61.7327 122.356 62.4894 123.29 62.4894Z" fill="#A0AEC0" fill-opacity="0.3"/>
<path d="M138.491 62.4894C139.424 62.4894 140.181 61.7327 140.181 60.7994C140.181 59.866 139.424 59.1094 138.491 59.1094C137.557 59.1094 136.801 59.866 136.801 60.7994C136.801 61.7327 137.557 62.4894 138.491 62.4894Z" fill="#A0AEC0" fill-opacity="0.3"/>
<path d="M153.69 62.4894C154.623 62.4894 155.38 61.7327 155.38 60.7994C155.38 59.866 154.623 59.1094 153.69 59.1094C152.757 59.1094 152 59.866 152 60.7994C152 61.7327 152.757 62.4894 153.69 62.4894Z" fill="#A0AEC0" fill-opacity="0.3"/>
<path d="M3.38 74.3091C3.38 75.2391 2.62 75.9991 1.69 75.9991C0.759999 75.9991 0 75.2391 0 74.3091C0 73.3791 0.759999 72.6191 1.69 72.6191C2.62 72.6191 3.38 73.3791 3.38 74.3091Z" fill="#A0AEC0" fill-opacity="0.3"/>
<path d="M18.5792 74.3091C18.5792 75.2391 17.8192 75.9991 16.8892 75.9991C15.9592 75.9991 15.1992 75.2391 15.1992 74.3091C15.1992 73.3791 15.9592 72.6191 16.8892 72.6191C17.8192 72.6191 18.5792 73.3791 18.5792 74.3091Z" fill="#A0AEC0" fill-opacity="0.3"/>
<path d="M33.7804 74.3091C33.7804 75.2391 33.0204 75.9991 32.0904 75.9991C31.1604 75.9991 30.4004 75.2391 30.4004 74.3091C30.4004 73.3791 31.1604 72.6191 32.0904 72.6191C33.0204 72.6191 33.7804 73.3791 33.7804 74.3091Z" fill="#A0AEC0" fill-opacity="0.3"/>
<path d="M48.9796 74.3091C48.9796 75.2391 48.2196 75.9991 47.2896 75.9991C46.3596 75.9991 45.5996 75.2391 45.5996 74.3091C45.5996 73.3791 46.3596 72.6191 47.2896 72.6191C48.2196 72.6191 48.9796 73.3791 48.9796 74.3091Z" fill="#A0AEC0" fill-opacity="0.3"/>
<path d="M64.1808 74.3091C64.1808 75.2391 63.4208 75.9991 62.4908 75.9991C61.5608 75.9991 60.8008 75.2391 60.8008 74.3091C60.8008 73.3791 61.5608 72.6191 62.4908 72.6191C63.4208 72.6191 64.1808 73.3791 64.1808 74.3091Z" fill="#A0AEC0" fill-opacity="0.3"/>
<path d="M79.38 74.3091C79.38 75.2391 78.62 75.9991 77.69 75.9991C76.76 75.9991 76 75.2391 76 74.3091C76 73.3791 76.76 72.6191 77.69 72.6191C78.62 72.6191 79.38 73.3791 79.38 74.3091Z" fill="#A0AEC0" fill-opacity="0.3"/>
<path d="M94.5792 74.3091C94.5792 75.2391 93.8192 75.9991 92.8892 75.9991C91.9592 75.9991 91.1992 75.2391 91.1992 74.3091C91.1992 73.3791 91.9592 72.6191 92.8892 72.6191C93.8192 72.6191 94.5792 73.3791 94.5792 74.3091Z" fill="#A0AEC0" fill-opacity="0.3"/>
<path d="M109.78 74.3091C109.78 75.2391 109.02 75.9991 108.09 75.9991C107.16 75.9991 106.4 75.2391 106.4 74.3091C106.4 73.3791 107.16 72.6191 108.09 72.6191C109.02 72.6191 109.78 73.3791 109.78 74.3091Z" fill="#A0AEC0" fill-opacity="0.3"/>
<path d="M124.98 74.3091C124.98 75.2391 124.22 75.9991 123.29 75.9991C122.36 75.9991 121.6 75.2391 121.6 74.3091C121.6 73.3791 122.36 72.6191 123.29 72.6191C124.22 72.6191 124.98 73.3791 124.98 74.3091Z" fill="#A0AEC0" fill-opacity="0.3"/>
<path d="M140.181 74.3091C140.181 75.2391 139.421 75.9991 138.491 75.9991C137.561 75.9991 136.801 75.2391 136.801 74.3091C136.801 73.3791 137.561 72.6191 138.491 72.6191C139.421 72.6191 140.181 73.3791 140.181 74.3091Z" fill="#A0AEC0" fill-opacity="0.3"/>
<path d="M155.38 74.3091C155.38 75.2391 154.62 75.9991 153.69 75.9991C152.76 75.9991 152 75.2391 152 74.3091C152 73.3791 152.76 72.6191 153.69 72.6191C154.62 72.6191 155.38 73.3791 155.38 74.3091Z" fill="#A0AEC0" fill-opacity="0.3"/>
</svg>
