<svg width="13" height="20" viewBox="0 0 13 20" fill="none" xmlns="http://www.w3.org/2000/svg">
<path fill-rule="evenodd" clip-rule="evenodd" d="M5 18H7V11.8C7 11.247 7.447 10.8 8 10.8H10.24L10.685 9.2H8C7.447 9.2 7 8.753 7 8.2V5.5C7 4.452 7.897 3.6 9 3.6H11V2H9C6.794 2 5 3.57 5 5.5V8.2C5 8.753 4.553 9.2 4 9.2H2V10.8H4C4.553 10.8 5 11.247 5 11.8V18ZM8 20H4C3.447 20 3 19.553 3 19V12.8H1C0.447 12.8 0 12.353 0 11.8V8.2C0 7.647 0.447 7.2 1 7.2H3V5.5C3 2.468 5.691 0 9 0H12C12.553 0 13 0.447 13 1V4.6C13 5.152 12.553 5.6 12 5.6H9V7.2H12C12.312 7.2 12.607 7.347 12.796 7.595C12.985 7.844 13.047 8.167 12.964 8.468L11.964 12.067C11.844 12.5 11.449 12.8 11 12.8H9V19C9 19.553 8.553 20 8 20Z" fill="#231F20"/>
</svg>
