<svg width="123" height="129" viewBox="0 0 123 129" fill="none" xmlns="http://www.w3.org/2000/svg">
<path d="M116.012 0.75H6.9875C5.2006 0.75 3.4869 1.48882 2.22337 2.80391C0.959842 4.11901 0.25 5.90267 0.25 7.7625V121.238C0.25 122.158 0.424271 123.07 0.762862 123.921C1.10145 124.772 1.59773 125.545 2.22337 126.196C2.849 126.847 3.59174 127.364 4.40917 127.716C5.2266 128.069 6.10272 128.25 6.9875 128.25H65.665V78.8438H49.74V59.7188H65.665V45.375C65.3351 42.0075 65.7171 38.6056 66.7841 35.4079C67.8512 32.2103 69.5774 29.2944 71.8418 26.8646C74.1063 24.4349 76.854 22.5502 79.8923 21.3428C82.9306 20.1353 86.186 19.6344 89.43 19.875C94.1972 19.8445 98.9622 20.0999 103.701 20.64V37.8525H93.9625C86.245 37.8525 84.775 41.6775 84.775 47.2238V59.5275H103.15L100.761 78.6525H84.775V128.25H116.012C116.897 128.25 117.773 128.069 118.591 127.716C119.408 127.364 120.151 126.847 120.777 126.196C121.402 125.545 121.899 124.772 122.237 123.921C122.576 123.07 122.75 122.158 122.75 121.238V7.7625C122.75 6.84161 122.576 5.92973 122.237 5.07893C121.899 4.22814 121.402 3.45509 120.777 2.80391C120.151 2.15274 119.408 1.63621 118.591 1.2838C117.773 0.931384 116.897 0.75 116.012 0.75V0.75Z" fill="#1876F2"/>
</svg>
