<svg width="24" height="24" viewBox="0 0 24 24" fill="none" xmlns="http://www.w3.org/2000/svg">
<path fill-rule="evenodd" clip-rule="evenodd" d="M4 13.7554V18.0684C4 18.3064 4.224 18.5004 4.5 18.5004H19.5C19.776 18.5004 20 18.3064 20 18.0684V9.4784C20 9.2394 19.776 9.0464 19.5 9.0464H12C11.7 9.0464 11.416 8.9114 11.226 8.6784L8.626 5.5004H4.5C4.224 5.5004 4 5.6934 4 5.9314V13.7554ZM19.5 20.5004H4.5C3.122 20.5004 2 19.4094 2 18.0684V5.9314C2 4.5904 3.122 3.5004 4.5 3.5004H9.101C9.4 3.5004 9.685 3.6344 9.875 3.8674L12.474 7.0464H19.5C20.878 7.0464 22 8.1364 22 9.4784V18.0684C22 19.4094 20.878 20.5004 19.5 20.5004Z" fill="white"/>
</svg>
