<svg width="20" height="20" viewBox="0 0 20 20" fill="none" xmlns="http://www.w3.org/2000/svg">
<path fill-rule="evenodd" clip-rule="evenodd" d="M14.2404 20.0001C13.6884 20.0001 13.2404 19.5531 13.2404 19.0001V16.4011C13.2874 15.7381 13.0884 15.1611 12.6974 14.7421C12.4384 14.4661 12.3584 14.0681 12.4884 13.7141C12.6184 13.3591 12.9364 13.1081 13.3124 13.0651C15.7464 12.7831 18.0004 11.9471 18.0004 7.77411C18.0004 6.97411 17.7684 6.20311 17.3294 5.54711C16.9284 4.94911 16.7824 4.22011 16.9164 3.49411C17.0044 3.02111 16.9994 2.54011 16.9044 2.07511C16.5004 2.19511 15.8084 2.48011 14.8114 3.17411C14.5664 3.34411 14.2554 3.39511 13.9694 3.31511C12.1654 2.80811 10.2584 2.80811 8.45341 3.31511C8.16641 3.39511 7.85741 3.34411 7.61241 3.17411C6.62541 2.48711 5.93741 2.20111 5.51741 2.08311C5.42341 2.54411 5.41941 3.02111 5.50641 3.49111C5.63941 4.21311 5.48841 4.95011 5.08041 5.56811C4.64641 6.22711 4.41941 6.99711 4.42341 7.79711C4.42341 11.6911 6.30241 12.7301 9.12341 13.0931C9.49541 13.1411 9.80941 13.3931 9.93741 13.7461C10.0644 14.0991 9.98341 14.4931 9.72741 14.7671C9.34041 15.1821 9.14141 15.7531 9.18041 16.3341L9.18141 17.1221C9.18341 17.1621 9.18341 17.2021 9.18141 17.2421L9.18241 19.0001C9.18241 19.5531 8.73541 20.0001 8.18241 20.0001C7.63041 20.0001 7.18241 19.5531 7.18241 19.0001V18.4291C4.49741 18.7791 2.96741 17.3401 1.90641 16.3401C1.46641 15.9271 1.05241 15.5361 0.749406 15.4571C0.214406 15.3181 -0.106594 14.7721 0.0324061 14.2381C0.171406 13.7041 0.717406 13.3781 1.25141 13.5211C2.05041 13.7291 2.64641 14.2901 3.27741 14.8841C4.29941 15.8471 5.26941 16.7591 7.18241 16.4041V16.4011C7.14541 15.8721 7.22441 15.3301 7.40741 14.8171C5.35341 14.3051 2.42341 12.8121 2.42341 7.80211C2.41741 6.61011 2.75941 5.45611 3.41041 4.46711C3.53241 4.28211 3.57841 4.06511 3.53941 3.85411C3.33941 2.77111 3.45441 1.65911 3.87441 0.643114C3.98841 0.367114 4.21941 0.156114 4.50441 0.0681142C4.83541 -0.0338858 6.05541 -0.228886 8.36641 1.27111C10.2374 0.822114 12.1864 0.822114 14.0564 1.27111C16.3684 -0.228886 17.5874 -0.0348858 17.9184 0.0681142C18.2034 0.156114 18.4344 0.367114 18.5484 0.643114C18.9694 1.66111 19.0844 2.77211 18.8834 3.85811C18.8444 4.06711 18.8834 4.27211 18.9914 4.43511C19.6514 5.42211 20.0004 6.57611 20.0004 7.77411C20.0004 12.8381 17.0774 14.3131 15.0204 14.8071C15.2044 15.3361 15.2814 15.9051 15.2374 16.4781L15.2404 19.0001C15.2404 19.5531 14.7924 20.0001 14.2404 20.0001" fill="#231F20"/>
</svg>
