<svg width="16" height="16" viewBox="0 0 16 16" fill="none" xmlns="http://www.w3.org/2000/svg">
<path fill-rule="evenodd" clip-rule="evenodd" d="M11.7331 1.59974C11.7331 1.30519 11.4942 1.06641 11.1997 1.06641C10.9052 1.06641 10.6664 1.30519 10.6664 1.59974V4.26641H5.33307V1.59974C5.33307 1.30519 5.09429 1.06641 4.79974 1.06641C4.50519 1.06641 4.26641 1.30519 4.26641 1.59974V4.26641H1.59974C1.30519 4.26641 1.06641 4.50519 1.06641 4.79974C1.06641 5.09429 1.30519 5.33307 1.59974 5.33307H4.26641V10.6664H1.59974C1.30519 10.6664 1.06641 10.9052 1.06641 11.1997C1.06641 11.4942 1.30519 11.7331 1.59974 11.7331H4.26641V14.3997C4.26641 14.6942 4.50519 14.9331 4.79974 14.9331C5.09429 14.9331 5.33307 14.6942 5.33307 14.3997V11.7331H10.6664V14.3997C10.6664 14.6942 10.9052 14.9331 11.1997 14.9331C11.4942 14.9331 11.7331 14.6942 11.7331 14.3997V11.7331H14.3997C14.6942 11.7331 14.9331 11.4942 14.9331 11.1997C14.9331 10.9052 14.6942 10.6664 14.3997 10.6664H11.7331V5.33307H14.3997C14.6942 5.33307 14.9331 5.09429 14.9331 4.79974C14.9331 4.50519 14.6942 4.26641 14.3997 4.26641H11.7331V1.59974ZM10.6664 10.6664V5.33307H5.33307V10.6664H10.6664Z" fill="#999999"/>
</svg>
