<svg width="130" height="130" viewBox="0 0 130 130" fill="none" xmlns="http://www.w3.org/2000/svg">
<path d="M24.4004 5.88867C20.2871 7.48828 16.8086 9.62109 13.3301 13.0996C9.85156 16.5527 7.71875 20.0566 6.11914 24.1445C4.57031 28.1055 3.5293 32.6504 3.22461 39.3027C2.91992 45.9551 2.84375 48.0879 2.84375 65.0488C2.84375 82.0098 2.91992 84.1426 3.22461 90.7949C3.5293 97.4473 4.5957 101.992 6.11914 105.953C7.71875 110.066 9.85156 113.545 13.3301 117.023C16.8086 120.502 20.2871 122.635 24.4004 124.234C28.3613 125.783 32.9063 126.824 39.5586 127.129C46.2109 127.434 48.3438 127.51 65.3047 127.51C82.2656 127.51 84.3984 127.434 91.0508 127.129C97.7031 126.824 102.248 125.758 106.209 124.234C110.322 122.635 113.801 120.502 117.279 117.023C120.758 113.545 122.891 110.066 124.49 105.953C126.039 101.992 127.08 97.4473 127.385 90.7949C127.689 84.1426 127.766 82.0098 127.766 65.0488C127.766 48.0879 127.689 45.9551 127.385 39.3027C127.08 32.6504 126.014 28.1055 124.49 24.1445C122.891 20.0566 120.758 16.5527 117.305 13.0996C113.826 9.62109 110.348 7.48828 106.234 5.88867C102.273 4.33984 97.7285 3.29883 91.0762 2.99414C84.4238 2.68945 82.291 2.61328 65.3301 2.61328C48.3691 2.61328 46.2363 2.68945 39.584 2.99414C32.9062 3.27344 28.3613 4.33984 24.4004 5.88867ZM90.543 14.2168C96.6367 14.4961 99.9375 15.5117 102.146 16.375C105.066 17.5176 107.148 18.8633 109.332 21.0469C111.516 23.2305 112.861 25.3125 114.004 28.2324C114.867 30.4414 115.883 33.7422 116.162 39.8359C116.467 46.4121 116.518 48.3926 116.518 65.0742C116.518 81.7559 116.441 83.7363 116.162 90.3125C115.883 96.4063 114.867 99.707 114.004 101.916C112.861 104.836 111.516 106.918 109.332 109.102C107.148 111.285 105.066 112.631 102.146 113.773C99.9375 114.637 96.6367 115.652 90.543 115.932C83.9668 116.236 81.9863 116.287 65.3047 116.287C48.6231 116.287 46.6426 116.211 40.0664 115.932C33.9727 115.652 30.6719 114.637 28.4629 113.773C25.543 112.631 23.4609 111.285 21.2773 109.102C19.0938 106.918 17.748 104.836 16.6055 101.916C15.7422 99.707 14.7266 96.4063 14.4473 90.3125C14.1426 83.7363 14.0918 81.7559 14.0918 65.0742C14.0918 48.3926 14.168 46.4121 14.4473 39.8359C14.7266 33.7422 15.7422 30.4414 16.6055 28.2324C17.748 25.3125 19.0938 23.2305 21.2773 21.0469C23.4609 18.8633 25.543 17.5176 28.4629 16.375C30.6719 15.5117 33.9727 14.4961 40.0664 14.2168C46.6426 13.9121 48.6231 13.8613 65.3047 13.8613C81.9863 13.8613 83.9668 13.9121 90.543 14.2168Z" fill="url(#paint0_radial)"/>
<path d="M33.2363 65.0762C33.2363 82.7988 47.6074 97.1445 65.3047 97.1445C83.002 97.1445 97.373 82.7734 97.373 65.0762C97.373 47.3789 83.0273 33.0078 65.3047 33.0078C47.582 33.0078 33.2363 47.3535 33.2363 65.0762ZM86.125 65.0762C86.125 76.5781 76.8066 85.8965 65.3047 85.8965C53.8027 85.8965 44.4844 76.5781 44.4844 65.0762C44.4844 53.5742 53.8027 44.2559 65.3047 44.2559C76.8066 44.2559 86.125 53.5742 86.125 65.0762Z" fill="url(#paint1_radial)"/>
<path d="M98.668 39.2266C102.805 39.2266 106.158 35.8731 106.158 31.7363C106.158 27.5996 102.805 24.2461 98.668 24.2461C94.5312 24.2461 91.1777 27.5996 91.1777 31.7363C91.1777 35.8731 94.5312 39.2266 98.668 39.2266Z" fill="#654C9F"/>
<defs>
<radialGradient id="paint0_radial" cx="0" cy="0" r="1" gradientUnits="userSpaceOnUse" gradientTransform="translate(5.11671 116.075) rotate(-3.00009) scale(180.607 153.514)">
<stop stop-color="#FED576"/>
<stop offset="0.2634" stop-color="#F47133"/>
<stop offset="0.6091" stop-color="#BC3081"/>
<stop offset="1" stop-color="#4C63D2"/>
</radialGradient>
<radialGradient id="paint1_radial" cx="0" cy="0" r="1" gradientUnits="userSpaceOnUse" gradientTransform="translate(34.3996 91.2633) rotate(-3.00009) scale(92.7442 78.8316)">
<stop stop-color="#FED576"/>
<stop offset="0.2634" stop-color="#F47133"/>
<stop offset="0.6091" stop-color="#BC3081"/>
<stop offset="1" stop-color="#4C63D2"/>
</radialGradient>
</defs>
</svg>
