<svg width="20" height="21" viewBox="0 0 20 21" fill="none" xmlns="http://www.w3.org/2000/svg">
<path fill-rule="evenodd" clip-rule="evenodd" d="M2 9.00002H1.998L2 19H4V9.00002H2ZM4 21H2C0.897 21 0 20.103 0 19V9C0 7.897 0.897 7 2 7H4C5.103 7 6 7.897 6 9V19C6 20.103 5.103 21 4 21V21ZM13.5049 10.6924C13.6579 10.6924 13.8129 10.7054 13.9659 10.7294C15.3159 10.9504 16.3329 12.1964 16.3329 13.6294V19.0004H17.9999V13.5384C17.9999 11.0364 15.9819 9.00041 13.4999 9.00041C11.0189 9.00041 8.9999 11.0364 8.9999 13.5384V19.0004H10.6669V13.5384C10.6669 12.6994 11.0319 11.9074 11.6699 11.3654C12.1859 10.9274 12.8349 10.6924 13.5049 10.6924M17.9999 21.0004H16.3329C15.2309 21.0004 14.3329 20.1024 14.3329 19.0004V13.6294C14.3329 13.1724 14.0299 12.7664 13.6449 12.7044C13.3089 12.6464 13.0749 12.7964 12.9659 12.8884C12.7759 13.0504 12.6669 13.2874 12.6669 13.5384V19.0004C12.6669 20.1024 11.7699 21.0004 10.6669 21.0004H8.9999C7.8979 21.0004 6.9999 20.1024 6.9999 19.0004V13.5384C6.9999 9.93242 9.9159 7.00042 13.4999 7.00042C17.0839 7.00042 19.9999 9.93242 19.9999 13.5384V19.0004C19.9999 20.1024 19.1029 21.0004 17.9999 21.0004M3 2C2.448 2 2 2.448 2 3C2 3.552 2.448 4 3 4C3.552 4 4 3.552 4 3C4 2.448 3.552 2 3 2M3 6C1.346 6 0 4.654 0 3C0 1.346 1.346 0 3 0C4.654 0 6 1.346 6 3C6 4.654 4.654 6 3 6" fill="#231F20"/>
</svg>
