<svg width="22" height="22" viewBox="0 0 22 22" fill="none" xmlns="http://www.w3.org/2000/svg">
<path fill-rule="evenodd" clip-rule="evenodd" d="M17.4154 16.5003H4.58203C4.07695 16.5003 3.66536 16.0897 3.66536 15.5837V6.64616L10.4487 11.7337C10.6119 11.8565 10.8053 11.917 10.9987 11.917C11.1921 11.917 11.3855 11.8565 11.5487 11.7337L18.332 6.64616V15.5837C18.332 16.0897 17.9204 16.5003 17.4154 16.5003ZM16.8039 5.50033L10.9987 9.85449L5.19345 5.50033H16.8039ZM17.4154 3.66699H4.58203C3.06586 3.66699 1.83203 4.90083 1.83203 6.41699V15.5837C1.83203 17.0998 3.06586 18.3337 4.58203 18.3337H17.4154C18.9315 18.3337 20.1654 17.0998 20.1654 15.5837V6.41699C20.1654 4.90083 18.9315 3.66699 17.4154 3.66699Z" fill="white"/>
</svg>
