<svg width="24" height="24" viewBox="0 0 24 24" fill="none" xmlns="http://www.w3.org/2000/svg">
<path fill-rule="evenodd" clip-rule="evenodd" d="M16.0186 10.6787L13.3236 7.98371L15.2716 6.03471L17.9656 8.72871L16.0186 10.6787ZM9.07959 17.6247L6.10259 17.8957L6.36659 14.9397L11.9836 9.32271L14.6796 12.0187L9.07959 17.6247ZM19.4036 7.33771L19.4026 7.33671L16.6646 4.59871C15.9236 3.85971 14.6506 3.82471 13.9486 4.52971L4.95259 13.5257C4.62659 13.8507 4.42459 14.2827 4.38259 14.7397L4.00359 18.9097C3.97759 19.2047 4.08259 19.4967 4.29259 19.7067C4.48159 19.8957 4.73659 19.9997 4.99959 19.9997C5.03059 19.9997 5.06059 19.9987 5.09059 19.9957L9.26059 19.6167C9.71859 19.5747 10.1496 19.3737 10.4746 19.0487L19.4716 10.0517C20.1996 9.32171 20.1686 8.1037 19.4036 7.33771Z" fill="#231F20"/>
</svg>
