<svg width="100" height="80" viewBox="0 0 100 80" fill="none" xmlns="http://www.w3.org/2000/svg">
<path d="M0 0H39.288V38.2501C39.4723 43.5833 38.5963 48.6249 36.6595 53.3749C34.7229 58.1249 32.0022 62.375 28.4976 66.1249C24.9931 69.8751 20.7968 72.9582 15.9089 75.3749C11.0209 77.7916 5.71794 79.3334 0 80V63.5001C7.00909 61.3334 11.8049 58.1249 14.3872 53.8748C16.9695 49.625 18.2607 44.4999 18.2607 38.4999H0V0ZM60.688 0H99.976V38.2501C100.16 43.5833 99.2843 48.6249 97.3475 53.3749C95.4109 58.1249 92.6902 62.375 89.1855 66.1249C85.6811 69.8751 81.4848 72.9582 76.5968 75.3749C71.7089 77.7916 66.4059 79.3334 60.688 80V63.5001C67.6971 61.3334 72.4929 58.1249 75.0752 53.8748C77.6575 49.625 78.9487 44.4999 78.9487 38.4999H60.688V0Z" fill="#0B2437" />
</svg>
