<svg width="501" height="206" viewBox="0 0 501 206" fill="none" xmlns="http://www.w3.org/2000/svg">
<g opacity="0.35">
<g opacity="0.35">
<path opacity="0.35" d="M341.709 23.622L500.288 194.516C501.175 195.485 501.236 197.064 500.441 198.141C499.646 199.182 498.271 199.289 497.353 198.392L333.882 33.9933C331.375 31.4812 331.131 27.0312 333.302 24.1244C335.503 21.2175 339.294 21.0023 341.709 23.622Z" fill="url(#paint0_linear_6573_7288)"/>
<path opacity="0.35" d="M400.99 89.0107L498.15 193.729C498.7 194.303 498.731 195.308 498.241 195.954C497.752 196.6 496.927 196.672 496.346 196.098L396.16 95.3626C394.631 93.8195 394.478 91.0921 395.824 89.3336C397.169 87.5393 399.492 87.3957 400.99 89.0107Z" fill="url(#paint1_linear_6573_7288)"/>
</g>
<path opacity="0.35" d="M287.535 42.1398L360.298 120.553C360.695 120.984 360.726 121.737 360.359 122.204C359.992 122.67 359.35 122.742 358.953 122.312L283.958 46.8768C282.797 45.7284 282.674 43.6829 283.683 42.3551C284.692 41.0272 286.435 40.9196 287.535 42.1398Z" fill="url(#paint2_linear_6573_7288)"/>
<path opacity="0.35" d="M314.747 72.1442L359.321 120.197C359.566 120.448 359.596 120.915 359.352 121.202C359.138 121.489 358.74 121.525 358.496 121.274L312.545 75.051C311.842 74.3333 311.781 73.0773 312.392 72.2878C313.004 71.4624 314.074 71.3906 314.747 72.1442Z" fill="url(#paint3_linear_6573_7288)"/>
</g>
<path d="M421.422 0.826274L485.51 77.7004C485.871 78.129 485.904 78.8577 485.576 79.3292C485.248 79.8007 484.706 79.8436 484.329 79.4364L418.256 5.49835C417.238 4.36249 417.14 2.36936 418.026 1.06205C418.912 -0.266689 420.454 -0.352448 421.422 0.826274Z" fill="url(#paint4_linear_6573_7288)"/>
<path d="M445.376 30.231L484.656 77.3371C484.869 77.5942 484.886 78.0443 484.689 78.3443C484.492 78.6444 484.147 78.6658 483.934 78.4086L443.44 33.1028C442.817 32.417 442.751 31.174 443.292 30.3811C443.85 29.5667 444.786 29.5024 445.376 30.231Z" fill="url(#paint5_linear_6573_7288)"/>
<path d="M80.0005 116.826L144.088 193.7C144.449 194.129 144.482 194.858 144.154 195.329C143.826 195.801 143.284 195.844 142.907 195.436L76.8339 121.498C75.8166 120.362 75.7182 118.369 76.6042 117.062C77.4902 115.733 79.0325 115.648 80.0005 116.826Z" fill="url(#paint6_linear_6573_7288)"/>
<path d="M103.954 146.231L143.234 193.337C143.447 193.594 143.464 194.044 143.267 194.344C143.07 194.644 142.725 194.666 142.512 194.409L102.018 149.103C101.395 148.417 101.329 147.174 101.871 146.381C102.428 145.567 103.364 145.502 103.954 146.231Z" fill="url(#paint7_linear_6573_7288)"/>
<g opacity="0.35">
<g opacity="0.35">
<path opacity="0.35" d="M58.7089 29.83L217.288 200.724C218.175 201.693 218.236 203.272 217.441 204.349C216.646 205.39 215.271 205.497 214.353 204.6L50.8824 40.2013C48.3755 37.6892 48.1309 33.2392 50.3015 30.3324C52.5027 27.4255 56.2937 27.2103 58.7089 29.83Z" fill="url(#paint8_linear_6573_7288)"/>
<path opacity="0.35" d="M117.99 95.2187L215.15 199.937C215.7 200.511 215.731 201.516 215.241 202.162C214.752 202.808 213.927 202.88 213.346 202.306L113.16 101.571C111.631 100.028 111.478 97.3001 112.824 95.5416C114.169 93.7473 116.492 93.6038 117.99 95.2187Z" fill="url(#paint9_linear_6573_7288)"/>
</g>
<path opacity="0.35" d="M4.53536 48.3478L77.2978 126.761C77.6953 127.192 77.7259 127.945 77.359 128.412C76.9921 128.878 76.3501 128.95 75.9527 128.52L0.958389 53.0848C-0.203365 51.9364 -0.325667 49.8909 0.683224 48.5631C1.69212 47.2353 3.43475 47.1276 4.53536 48.3478Z" fill="url(#paint10_linear_6573_7288)"/>
<path opacity="0.35" d="M31.7465 78.3522L76.3212 126.405C76.5657 126.656 76.5963 127.123 76.3517 127.41C76.1377 127.697 75.7403 127.733 75.4957 127.482L29.5453 81.259C28.8422 80.5413 28.781 79.2853 29.3925 78.4958C30.0039 77.6704 31.0739 77.5986 31.7465 78.3522Z" fill="url(#paint11_linear_6573_7288)"/>
</g>
<defs>
<linearGradient id="paint0_linear_6573_7288" x1="500.329" y1="198.279" x2="310.323" y2="54.4901" gradientUnits="userSpaceOnUse">
<stop offset="0.00537634" stop-color="#FEA7AF"/>
<stop offset="0.9946" stop-color="#EA47AC" stop-opacity="0"/>
</linearGradient>
<linearGradient id="paint1_linear_6573_7288" x1="498.18" y1="196.036" x2="381.744" y2="107.922" gradientUnits="userSpaceOnUse">
<stop offset="0.00537634" stop-color="#FEA7AF"/>
<stop offset="0.9946" stop-color="#EA47AC" stop-opacity="0"/>
</linearGradient>
<linearGradient id="paint2_linear_6573_7288" x1="360.325" y1="122.277" x2="273.146" y2="56.3034" gradientUnits="userSpaceOnUse">
<stop offset="0.00537634" stop-color="#FEA7AF"/>
<stop offset="0.9946" stop-color="#EA47AC" stop-opacity="0"/>
</linearGradient>
<linearGradient id="paint3_linear_6573_7288" x1="359.34" y1="121.249" x2="305.916" y2="80.8208" gradientUnits="userSpaceOnUse">
<stop offset="0.00537634" stop-color="#FEA7AF"/>
<stop offset="0.9946" stop-color="#EA47AC" stop-opacity="0"/>
</linearGradient>
<linearGradient id="paint4_linear_6573_7288" x1="485.541" y1="79.3779" x2="402.955" y2="23.2125" gradientUnits="userSpaceOnUse">
<stop offset="0.00537634" stop-color="#FEA7AF"/>
<stop offset="0.9946" stop-color="#EA47AC" stop-opacity="0"/>
</linearGradient>
<linearGradient id="paint5_linear_6573_7288" x1="484.671" y1="78.3693" x2="434.062" y2="43.9508" gradientUnits="userSpaceOnUse">
<stop offset="0.00537634" stop-color="#FEA7AF"/>
<stop offset="0.9946" stop-color="#EA47AC" stop-opacity="0"/>
</linearGradient>
<linearGradient id="paint6_linear_6573_7288" x1="144.12" y1="195.378" x2="61.5328" y2="139.212" gradientUnits="userSpaceOnUse">
<stop offset="0.00537634" stop-color="#FEA7AF"/>
<stop offset="0.9946" stop-color="#EA47AC" stop-opacity="0"/>
</linearGradient>
<linearGradient id="paint7_linear_6573_7288" x1="143.249" y1="194.369" x2="92.6398" y2="159.951" gradientUnits="userSpaceOnUse">
<stop offset="0.00537634" stop-color="#FEA7AF"/>
<stop offset="0.9946" stop-color="#EA47AC" stop-opacity="0"/>
</linearGradient>
<linearGradient id="paint8_linear_6573_7288" x1="217.329" y1="204.487" x2="27.3227" y2="60.6981" gradientUnits="userSpaceOnUse">
<stop offset="0.00537634" stop-color="#FEA7AF"/>
<stop offset="0.9946" stop-color="#EA47AC" stop-opacity="0"/>
</linearGradient>
<linearGradient id="paint9_linear_6573_7288" x1="215.18" y1="202.244" x2="98.744" y2="114.13" gradientUnits="userSpaceOnUse">
<stop offset="0.00537634" stop-color="#FEA7AF"/>
<stop offset="0.9946" stop-color="#EA47AC" stop-opacity="0"/>
</linearGradient>
<linearGradient id="paint10_linear_6573_7288" x1="77.3249" y1="128.485" x2="-9.85407" y2="62.5114" gradientUnits="userSpaceOnUse">
<stop offset="0.00537634" stop-color="#FEA7AF"/>
<stop offset="0.9946" stop-color="#EA47AC" stop-opacity="0"/>
</linearGradient>
<linearGradient id="paint11_linear_6573_7288" x1="76.3399" y1="127.457" x2="22.9165" y2="87.0288" gradientUnits="userSpaceOnUse">
<stop offset="0.00537634" stop-color="#FEA7AF"/>
<stop offset="0.9946" stop-color="#EA47AC" stop-opacity="0"/>
</linearGradient>
</defs>
</svg>
