<svg width="22" height="22" viewBox="0 0 22 22" fill="none" xmlns="http://www.w3.org/2000/svg">
<path fill-rule="evenodd" clip-rule="evenodd" d="M4.58333 10.0833C4.58333 7.05008 7.05008 4.58333 10.0833 4.58333C13.1166 4.58333 15.5833 7.05008 15.5833 10.0833C15.5833 13.1166 13.1166 15.5833 10.0833 15.5833C7.05008 15.5833 4.58333 13.1166 4.58333 10.0833ZM18.9814 17.6852L15.8693 14.5723C16.8346 13.3311 17.4167 11.7755 17.4167 10.0833C17.4167 6.03992 14.1267 2.75 10.0833 2.75C6.03992 2.75 2.75 6.03992 2.75 10.0833C2.75 14.1267 6.03992 17.4167 10.0833 17.4167C11.7755 17.4167 13.3311 16.8346 14.5723 15.8693L17.6852 18.9814C17.864 19.1602 18.0987 19.25 18.3333 19.25C18.568 19.25 18.8027 19.1602 18.9814 18.9814C19.3398 18.623 19.3398 18.0437 18.9814 17.6852Z" fill="white"/>
</svg>
