<svg width="49" height="46" viewBox="0 0 49 46" fill="none" xmlns="http://www.w3.org/2000/svg">
<path fill-rule="evenodd" clip-rule="evenodd" d="M44.6377 27.341C27.8039 36.2919 11.3624 32.3668 6.25125 15.8304C6.08115 15.2798 5.48208 15.0681 4.91745 15.352C4.3465 15.6439 4.02235 16.3255 4.19245 16.8761C9.66493 34.6084 27.2537 38.904 45.2931 29.3154C45.8562 29.0172 46.1706 28.3278 45.9902 27.7821C45.8035 27.2445 45.2007 27.0429 44.6377 27.341Z" fill="#5263F2"/>
<path d="M20.3016 17.3755C21.5477 18.3576 23.5306 17.9196 24.7305 16.3971C25.9304 14.8746 25.8929 12.8442 24.6468 11.8622C23.4008 10.8801 21.4179 11.3182 20.218 12.8407C19.0181 14.3632 19.0555 16.3935 20.3016 17.3755Z" fill="#5263F2"/>
<path d="M31.9557 21.8043C33.1775 22.7672 35.1216 22.3377 36.298 20.845C37.4745 19.3522 37.4378 17.3616 36.216 16.3987C34.9943 15.4358 33.0502 15.8654 31.8738 17.3581C30.6973 18.8508 30.734 20.8415 31.9557 21.8043Z" fill="#5263F2"/>
</svg>
