<svg width="18" height="16" viewBox="0 0 18 16" fill="none" xmlns="http://www.w3.org/2000/svg">
<path fill-rule="evenodd" clip-rule="evenodd" d="M16.0156 2.65404V2.65604V2.65404ZM5.51263 13.997C5.53663 13.997 5.56263 13.998 5.58663 14C11.2816 13.963 14.6806 9.61205 14.6806 5.40605C14.6806 5.02405 14.8766 4.77705 15.0506 4.55805C15.2086 4.35805 15.4536 4.05005 15.6716 3.60605C14.8786 3.59805 14.1706 3.24605 13.7586 2.76405C13.3276 2.30305 12.7086 2.02105 12.0406 2.00105C11.3966 1.97505 10.7396 2.22305 10.2516 2.68605C9.60163 3.30305 9.32363 4.23405 9.52563 5.11405L9.78663 6.25305L8.62063 6.33505C5.60463 6.56105 3.51463 5.27005 2.07963 3.93405C2.08563 5.95405 2.75663 8.64905 5.80663 10.387L6.76463 10.933L6.12763 11.834C5.46463 12.773 4.46663 13.372 3.45063 13.755C4.12163 13.915 4.81163 13.997 5.49963 13.997H5.51163H5.51263ZM5.51263 16.0001C5.48663 16.0001 5.45863 15.9991 5.43263 15.9971C3.82963 15.9861 2.22163 15.6131 0.777628 14.9141C0.234628 14.6501 -0.072372 14.0721 0.014628 13.4721C0.102628 12.8651 0.568628 12.3891 1.17263 12.2911C2.21763 12.1191 3.08463 11.8131 3.71263 11.4041C-0.164372 8.50506 -0.062372 4.16506 0.188628 2.32706C0.262628 1.78906 0.645628 1.34006 1.16363 1.18306C1.68963 1.02306 2.23463 1.18306 2.59463 1.59206C4.13063 3.33306 5.66563 4.20806 7.46563 4.34106C7.51763 3.17606 8.01363 2.05306 8.87463 1.23506C9.75163 0.402064 10.8986 -0.0339365 12.1026 0.0020635C13.3076 0.0390635 14.4256 0.547064 15.2496 1.43206C15.3336 1.52806 15.6476 1.70206 16.0266 1.53206C16.5236 1.30906 17.0886 1.38306 17.5006 1.72706C17.9116 2.06806 18.0866 2.60506 17.9586 3.12806C17.6356 4.45906 16.9976 5.31706 16.6756 5.72806C16.5076 10.8331 12.3596 16.0001 5.51263 16.0001V16.0001Z" fill="#231F20"/>
</svg>
