<svg width="24" height="24" viewBox="0 0 24 24" fill="none" xmlns="http://www.w3.org/2000/svg">
<path d="M22.1623 5.65593C21.3989 5.99362 20.5893 6.2154 19.7603 6.31393C20.634 5.79136 21.288 4.96894 21.6003 3.99993C20.7803 4.48793 19.8813 4.82993 18.9443 5.01493C18.3149 4.34151 17.4807 3.89489 16.5713 3.74451C15.6618 3.59413 14.7282 3.74842 13.9156 4.18338C13.1029 4.61834 12.4567 5.30961 12.0774 6.14972C11.6981 6.98983 11.607 7.93171 11.8183 8.82893C10.1554 8.74558 8.52863 8.31345 7.04358 7.56059C5.55854 6.80773 4.24842 5.75097 3.1983 4.45893C2.82659 5.09738 2.63125 5.82315 2.6323 6.56193C2.6323 8.01193 3.3703 9.29293 4.4923 10.0429C3.82831 10.022 3.17893 9.84271 2.5983 9.51993V9.57193C2.5985 10.5376 2.93267 11.4735 3.54414 12.221C4.15562 12.9684 5.00678 13.4814 5.9533 13.6729C5.33691 13.84 4.6906 13.8646 4.0633 13.7449C4.33016 14.5762 4.8503 15.3031 5.55089 15.824C6.25147 16.3449 7.09743 16.6337 7.9703 16.6499C7.10278 17.3313 6.10947 17.8349 5.04718 18.1321C3.98488 18.4293 2.87442 18.5142 1.7793 18.3819C3.69099 19.6114 5.91639 20.264 8.1893 20.2619C15.8823 20.2619 20.0893 13.8889 20.0893 8.36193C20.0893 8.18193 20.0843 7.99993 20.0763 7.82193C20.8952 7.23009 21.6019 6.49695 22.1633 5.65693L22.1623 5.65593Z" fill="#BDDDFF"/>
</svg>
