<svg width="24" height="24" viewBox="0 0 24 24" fill="none" xmlns="http://www.w3.org/2000/svg">
<path fill-rule="evenodd" clip-rule="evenodd" d="M10.4541 11.5C14.0171 11.5 17.2311 13.134 19.2641 15.759C18.3291 11.89 14.7341 8.99998 10.4541 8.99998C9.9011 8.99998 9.4541 8.55298 9.4541 7.99998V6.07698L4.6301 10.251L9.4541 14.463V12.5C9.4541 11.947 9.9011 11.5 10.4541 11.5ZM20.2211 21C19.7601 21 19.3581 20.685 19.2491 20.237C18.3591 16.588 15.2281 13.952 11.4541 13.553V14.674C11.4541 15.38 11.0351 16.009 10.3611 16.314C9.6301 16.647 8.7771 16.527 8.1841 16.01L3.1181 11.586C2.7251 11.242 2.5001 10.755 2.5001 10.25C2.5001 9.74498 2.7251 9.25798 3.1181 8.91398L8.1841 4.48998C8.7771 3.97298 9.6301 3.85298 10.3611 4.18598C11.0351 4.49098 11.4541 5.11998 11.4541 5.82598V7.04398C17.0781 7.53698 21.5001 12.15 21.5001 17.75C21.5001 18.56 21.3961 19.396 21.1921 20.236C21.0841 20.685 20.6831 21 20.2211 21Z" fill="white"/>
</svg>
