<svg width="80" height="220" viewBox="0 0 80 220" fill="none" xmlns="http://www.w3.org/2000/svg">
<path fill-rule="evenodd" clip-rule="evenodd" d="M71.9025 212.298L65.4005 211.437C66.083 206.768 67.6276 202.335 69.1219 198.045C70.7758 193.299 72.3357 188.817 72.7776 184.138C73.3268 178.281 72.5392 172.978 70.1414 166.409C68.9884 163.247 67.6714 160.098 66.2778 156.765C62.8276 148.506 59.2616 139.968 58.2333 131.082C56.8287 118.91 59.9529 110.026 65.0767 100.43C68.8681 93.3273 70.4477 84.5413 69.7651 74.3135C69.4719 69.9091 68.2161 65.6713 66.8881 61.1835C66.0546 58.3729 65.1948 55.4685 64.5844 52.5016C62.7204 43.4531 62.0203 34.6588 62.3113 23.9831C62.5301 15.9054 65.0723 10.0759 67.7654 3.90255C68.7434 1.65657 69.7563 -0.664419 70.6621 -3.13542C73.9984 -12.236 70.7452 -20.9741 67.3016 -30.2247L73.4865 -32.3145C76.9869 -22.9117 80.9577 -12.2506 76.8578 -1.07278C75.8908 1.5649 74.8407 3.97339 73.8256 6.30063C71.2681 12.1635 69.0606 17.2284 68.8725 24.1456C68.5946 34.3442 69.2597 42.7177 71.0252 51.2974C71.5831 54.0184 72.3707 56.6748 73.2043 59.4875C74.5672 64.092 75.9784 68.8506 76.3153 73.9177C77.0722 85.2767 75.2586 95.1503 70.9268 103.263C66.3346 111.862 63.5299 119.767 64.7572 130.399C65.6871 138.443 69.0869 146.581 72.3773 154.454C73.7359 157.704 75.1383 161.065 76.3415 164.357C79.0281 171.716 79.9448 177.989 79.3147 184.696C78.805 190.098 77.0504 195.138 75.3505 200.012C73.8847 204.22 72.4998 208.195 71.9025 212.298Z" fill="#5183F5" fill-opacity="0.1"/>
<path fill-rule="evenodd" clip-rule="evenodd" d="M59.2282 200.474L52.8027 199.195C54.2182 192.751 53.0915 185.321 49.3657 176.477L47.7905 172.779C43.4872 162.709 39.4201 153.198 38.4443 141.668C37.7246 133.197 37.4423 122.296 41.6844 113.118L42.1023 112.214C45.0252 105.899 47.784 99.9321 49.5714 93.3837C54.0957 76.7993 50.7418 62.09 47.1911 46.5181C44.6029 35.1715 43.3756 25.9709 45.2527 15.1681C45.9025 11.4241 47.4208 8.39054 48.891 5.45702C49.6392 3.959 50.348 2.54432 50.954 1.02755C54.8767 -8.7731 52.1114 -21.2406 49.8908 -31.26L49.7551 -31.8705L56.1784 -33.1602L56.3119 -32.5518C58.7119 -21.7323 61.6982 -8.26474 57.0886 3.2527C56.3863 5.00698 55.5877 6.60292 54.8155 8.14678C53.4831 10.8053 52.2251 13.3159 51.7263 16.1869C50.022 26.0084 51.1794 34.5652 53.6034 45.1909C57.327 61.5129 60.8406 76.9306 55.9225 94.9568C54.0038 101.993 51.0065 108.47 48.1077 114.735L47.6921 115.635C44.0429 123.532 44.3295 133.426 44.9858 141.164C45.8828 151.736 49.7617 160.811 53.8703 170.422L55.4565 174.15C59.6811 184.173 60.915 192.784 59.2282 200.474Z" fill="#5183F5" fill-opacity="0.1"/>
<path fill-rule="evenodd" clip-rule="evenodd" d="M35.8455 219.517L30.0063 216.665C39.2497 199.508 33.0714 180.479 27.0966 162.076C26.4359 160.036 25.7795 158.017 25.1516 156.019C18.6583 135.356 16.3152 118.821 24.6813 100.266C31.6034 84.9188 32.5726 69.7324 27.6457 53.8355C24.084 42.3535 22.7757 31.7944 23.6443 21.5604C24.1146 15.9767 26.333 11.4868 28.4771 7.14693C29.2384 5.59892 30.0151 4.03006 30.7217 2.38412L31.5837 0.408985C33.2595 -3.3996 35.1585 -7.71448 35.3664 -11.4793C35.7208 -17.8797 34.1959 -23.2989 32.4348 -29.5722C32.1197 -30.6931 31.8003 -31.8286 31.4896 -32.9828L37.8451 -34.5371C38.1514 -33.4037 38.4643 -32.2911 38.7749 -31.189C40.6017 -24.6844 42.3279 -18.5402 41.921 -11.1522C41.6541 -6.30188 39.521 -1.45364 37.6373 2.82373L36.7972 4.74886C36.0358 6.52189 35.2132 8.19076 34.4147 9.80545C32.4348 13.8182 30.562 17.6101 30.1857 22.0625C29.385 31.5173 30.6123 41.3326 33.9399 52.0666C39.3175 69.4178 38.263 85.9918 30.713 102.73C23.1279 119.55 25.3682 134.905 31.4393 154.228C32.0606 156.207 32.7126 158.209 33.3667 160.23C39.4335 178.915 46.3096 200.095 35.8455 219.517Z" fill="#5183F5" fill-opacity="0.1"/>
<path fill-rule="evenodd" clip-rule="evenodd" d="M15.9183 208.906L9.84717 206.529C10.4247 205.193 10.1294 202.504 9.89093 200.341C9.75529 199.107 9.61527 197.832 9.59777 196.659C9.484 189.123 8.10132 182.219 6.44517 174.62C5.79103 171.616 4.93342 168.595 4.10643 165.674C2.86596 161.303 1.58392 156.782 0.881646 152.044C-0.0437859 145.81 -0.0175325 139.591 0.0087209 133.578C0.0152842 132.293 0.0196598 131.007 0.017472 129.717C-0.00878135 119.998 2.03242 110.141 4.00361 100.609C6.65082 87.8146 9.15365 75.7305 7.18683 63.7943C6.63989 60.469 5.86541 57.1855 5.115 54.0082C3.71045 48.0494 2.25776 41.8865 2.18775 35.0944C2.06086 22.8269 3.60325 13.3325 7.18902 4.31319C8.26103 1.61509 9.58901 -0.958 10.8732 -3.44567C13.107 -7.76888 15.216 -11.8525 15.9401 -16.3361C16.6949 -21.0198 15.3298 -24.9742 13.7502 -29.5558C13.096 -31.4475 12.42 -33.406 11.8752 -35.4978L18.2461 -37C18.7318 -35.1374 19.3684 -33.2914 19.9853 -31.5059C21.6743 -26.6118 23.4224 -21.549 22.4247 -15.3861C21.5496 -9.95444 19.1168 -5.2437 16.7649 -0.687149C15.4916 1.7776 14.2884 4.10484 13.3279 6.52584C10.0003 14.8972 8.63077 23.4228 8.75109 35.0319C8.81454 41.1636 10.1272 46.7369 11.5208 52.6393C12.2931 55.9125 13.0895 59.2981 13.6714 62.8254C15.8154 75.8534 13.0851 89.0543 10.4422 101.818C8.53232 111.052 6.55675 120.6 6.58081 129.701C6.583 131.005 6.57863 132.305 6.57206 133.603C6.54581 139.662 6.52175 145.383 7.38154 151.169C8.02694 155.523 9.20178 159.663 10.4422 164.045C11.2955 167.055 12.1772 170.166 12.8729 173.35C14.5356 180.977 16.0386 188.492 16.1611 196.57C16.1742 197.459 16.2946 198.543 16.4193 199.691C16.7518 202.699 17.1259 206.11 15.9183 208.906Z" fill="#5183F5" fill-opacity="0.1"/>
</svg>
