<svg width="1829" height="1921" viewBox="0 0 1829 1921" fill="none" xmlns="http://www.w3.org/2000/svg">
<path opacity="0.16" d="M547.629 496.322L481.662 603.961C401.502 734.761 491.173 903.581 644.431 910.398C719.225 913.724 786.002 958.266 817.806 1026.04L823.072 1037.27C881.252 1161.26 1045.42 1188.86 1140.95 1090.71C1228.76 1000.49 1377.65 1015.29 1445.99 1121.02L1575.84 1321.9C1601.46 1361.53 1653.2 1374.86 1694.77 1352.55C1745.96 1325.08 1807.57 1363.87 1804.92 1421.9L1802.87 1466.82C1800.92 1509.74 1771.86 1546.65 1730.61 1558.63L1650.82 1581.81C1571.19 1604.94 1486.03 1569.68 1445.82 1497.16C1384.66 1386.83 1230.85 1373.57 1152.17 1472.18C1082.72 1559.22 963.636 1589.06 861.351 1545.05L829.247 1531.23C776.181 1508.4 734.864 1464.71 715.02 1410.46L678.279 1310C647.473 1225.77 553.897 1182.83 469.948 1214.39C385.653 1246.08 291.733 1202.64 261.295 1117.88L233.007 1039.11C219.637 1001.88 215.526 961.962 221.026 922.791L252.945 695.481C263.033 623.636 285.299 554.037 318.785 489.677L410.399 313.592C446.214 244.755 495.712 183.957 555.857 134.928L927.857 -168.326C993.959 -222.212 1092.27 -206.401 1138.14 -134.506C1178.29 -71.5785 1163.11 11.6647 1103.33 56.3658L617.627 419.549C589.642 440.475 565.888 466.528 547.629 496.322Z" fill="#081E37" fill-opacity="0.8"/>
</svg>
